Coordinates
version=1
nRows=8
nColumns=36
inDegrees=yes

Units are S.I. units (second, meters, Newtons, ...)
If the header above contains a line with 'inDegrees', this indicates whether rotational values are in degrees (yes) or radians (no).

endheader
time	pelvis_tilt	pelvis_list	pelvis_rotation	pelvis_tx	pelvis_ty	pelvis_tz	hip_flexion_r	hip_adduction_r	hip_rotation_r	knee_angle_r	knee_angle_r_beta	ankle_angle_r	subtalar_angle_r	mtp_angle_r	hip_flexion_l	hip_adduction_l	hip_rotation_l	knee_angle_l	knee_angle_l_beta	ankle_angle_l	subtalar_angle_l	mtp_angle_l	lumbar_extension	lumbar_bending	lumbar_rotation	arm_flex_r	arm_add_r	arm_rot_r	elbow_flex_r	pro_sup_r	arm_flex_l	arm_add_l	arm_rot_l	elbow_flex_l	pro_sup_l
      0.00000000	      4.95644653	      1.06980599	      5.39338677	      0.75892336	      0.96070632	      0.69559656	     -6.87184792	     -0.70604717	      0.40062612	     47.81177782	      0.83447294	    -10.91429329	    -11.49670021	     -7.08043166	     11.80394596	      3.29990905	      4.58139562	     23.67220479	      0.41315791	      5.08458677	    -11.10222803	     -7.08043166	    -25.83130127	     -1.04940708	      2.25725904	     11.28917510	     -9.74087856	     -2.41148082	     23.94804681	     84.36856236	     15.10827052	    -10.71907464	      8.41966080	     16.69395532	     79.52658878
      0.01666670	      2.97185068	     -0.13341640	      3.76971232	      0.76177592	      0.95363624	      0.69721822	     -0.69368299	      0.32871439	      1.64369463	     51.53859461	      0.89951817	     -8.54341918	    -15.19986555	     -7.15094285	     12.01953913	      2.28584425	      4.76528955	     22.93508272	      0.40029271	      5.75535719	    -11.63479637	     -7.15094285	    -24.65671950	     -0.38551152	      3.24660240	     10.84845916	    -10.18553839	     -2.14964822	     24.77957634	     81.78247610	     15.02505869	    -10.23541893	      8.06769744	     17.87949598	     77.68064811
      0.03333330	      2.21166744	     -0.62732515	      2.62570647	      0.76295295	      0.94993915	      0.69999037	      4.25977999	      0.78456513	      2.63243539	     54.67759249	      0.95430402	     -3.07963144	    -15.97976734	     -7.21131683	     11.08407523	      1.57355695	      3.73574819	     22.18132069	      0.38713708	      7.09354694	    -11.30359482	     -7.21131683	    -24.05926095	     -0.17522855	      3.46985596	     11.27308592	     -9.98574511	     -1.79455060	     25.03094258	     79.64806946	     15.06267490	    -10.43473067	      7.66279255	     19.01926347	     76.20677000
      0.05000000	      1.73691446	     -1.13305758	      1.98419740	      0.76413352	      0.94901466	      0.70259064	      8.56400819	      1.28036741	      3.05502321	     55.79859506	      0.97386920	      1.88450652	    -16.56846256	     -7.23550047	      9.78950165	      0.64786563	      2.89860527	     21.65497789	      0.37795066	      8.99085629	    -11.24632110	     -7.23550047	    -23.74313629	      0.05406222	      3.64582651	     11.05319130	     -9.73677787	     -1.92203218	     25.71289954	     78.90636100	     15.27267827	    -10.86966345	      7.39164579	     21.03127743	     75.79986926
      0.06666670	      1.45651636	     -1.51117881	      1.63430737	      0.76381582	      0.95054660	      0.70403483	     12.11546193	      1.66613971	      3.21328007	     54.81923575	      0.95677616	      4.78707155	    -16.75795209	     -7.25232254	      8.28477879	     -0.15339144	      2.12895879	     20.96492999	      0.36590706	     10.20130430	    -11.18614059	     -7.25232254	    -23.56703397	      0.23484360	      3.55578976	     10.88647941	     -9.28701744	     -2.63830985	     25.89457887	     78.38185990	     15.62149255	    -11.31399098	      6.84503892	     22.95586682	     75.83203305
      0.08333330	      1.21644798	     -1.71456248	      1.56541809	      0.76072728	      0.95105781	      0.70439476	     15.08366201	      1.75245529	      3.12554118	     52.63481563	      0.91865083	      5.78700151	    -17.22760832	     -7.25075804	      7.03972862	     -0.65051686	      1.87811924	     20.30964999	      0.35447026	     10.63493155	    -11.56103028	     -7.25075804	    -23.56456235	      0.31551557	      3.28061209	     10.83384219	     -8.94625089	     -2.64191649	     25.99565211	     78.31372277	     16.64143088	    -11.61996687	      6.76032127	     23.52628688	     75.80320575
      0.10000000	      0.96695571	     -1.93639981	      1.30450677	      0.75626561	      0.95133189	      0.70436642	     17.74600474	      1.73842925	      2.97602291	     49.91409737	      0.87116534	      6.72619477	    -16.61059076	     -7.26077175	      5.91133190	     -1.13210407	      1.25484869	     19.46002622	      0.33964153	     11.14181262	    -11.06221670	     -7.26077175	    -23.89086117	      0.48646770	      3.34130362	     10.68122934	     -8.88769211	     -3.06246524	     26.99316975	     77.91589160	     16.95574659	    -12.01732823	      6.66984356	     26.31037496	     75.82743102
      0.11666670	      0.83838565	     -2.11951760	      1.11882487	      0.75295070	      0.95140136	      0.70402448	     20.10098096	      1.63361355	      2.87951814	     46.83270721	      0.81738494	      7.00339522	    -16.38788648	     -7.28237791	      4.82705158	     -1.44540206	      0.90340392	     18.72517069	      0.32681588	     11.43635449	    -11.00433499	     -7.28237791	    -24.60384878	      0.64771941	      3.11556133	     10.87814339	     -8.80451808	     -3.29460594	     27.80285097	     76.95611201	     17.76365846	    -12.26128741	      6.50216498	     28.31259832	     75.25306175
